<svg xmlns="http://www.w3.org/2000/svg" viewBox="0 0 224.08 94.21"><title>Asset 7</title><g id="Layer_2" data-name="Layer 2"><g id="OBJECTS"><path d="M79.73,92.94c-1.37,0-2.75-.08-4.11,0-2.77.2-4.42-1.11-5.49-3.55-1.65-3.75-3.28-7.52-5.22-11.12a4.55,4.55,0,0,0-3.25-2.14q-17.37-.24-34.76,0a5,5,0,0,0-3.52,2.32c-1.95,3.6-3.54,7.39-5.17,11.15A5,5,0,0,1,13,93c-3.36-.12-6.73.09-10.09-.08C.5,92.77-.78,91.76.52,89Q20.74,45.81,40.93,2.63C41.5,1.42,43.24-.1,44.29,0A5.49,5.49,0,0,1,48,2.8Q67.78,45.34,87.36,88c1.77,3.84,1.08,4.88-3.15,5C82.72,93,81.22,92.94,79.73,92.94ZM44.07,32.14C39.48,42.39,35.26,51.8,30.92,61.47H57.48Z"/><path d="M182.7,38.82C188.52,36.2,194.6,35,200.89,36c23.88,4.07,27.71,29.52,18.75,43.69-7.06,11.16-18.69,16.22-32.19,14-11.55-1.94-21-11.33-23.62-24.56-3.68-18.86.64-35.84,14-50a69.07,69.07,0,0,1,27.28-17.8c2.91-1,4.54-.64,5.76,2.45,3.38,8.58,3.48,8.5-4.76,12.36-6.69,3.13-13.14,6.73-17.93,12.5-2.4,2.91-4.29,6.25-6.41,9.39Zm11.08,40.51a15.43,15.43,0,0,0,.29-30.85c-7.47-.17-15.46,6.32-15.59,12.67C178.26,71.05,185.17,79.26,193.78,79.33Z"/><path d="M118.5,78.94c9.38,0,18,.08,26.55,0,3.16,0,4.51,1,4.45,4.29-.2,11.09,1.15,9.72-9.79,9.75-14.08,0-28.17.07-42.25-.06-1.63,0-4.46-.81-4.64-1.67a7.77,7.77,0,0,1,1.24-5.7c10.9-14.21,22-28.24,33-42.39a44.12,44.12,0,0,0,4.56-7.22c2.32-4.62,2.68-9.35-.64-13.71s-8.19-5.42-13.39-4.9c-4.95.49-8.9,3.13-12.18,6.67-2,2.16-3.61,2.22-5.51,0-1.13-1.32-2.45-2.46-3.69-3.7C93,17.06,93,16.41,96.13,13.36c9.75-9.5,21.2-13.17,34.58-9.71,15.16,3.93,23.27,19.4,17.4,33.88a65.09,65.09,0,0,1-8.18,13.7c-6.13,8.3-12.66,16.3-19,24.43C120.24,76.52,119.62,77.41,118.5,78.94Z"/></g></g></svg>